<svg xmlns="http://www.w3.org/2000/svg" xmlns:xlink="http://www.w3.org/1999/xlink" viewBox="0 0 1133.05 572.85"><defs><style>.cls-1{fill:#191919;}.cls-2{mask:url(#mask);}.cls-3{fill:url(#radial-gradient);}.cls-4{fill:url(#radial-gradient-2);}.cls-5{fill:url(#radial-gradient-3);}.cls-6{fill:url(#radial-gradient-4);}.cls-7{fill:url(#radial-gradient-5);}.cls-8{fill:url(#linear-gradient);}.cls-9{fill:url(#radial-gradient-6);}.cls-10{fill:url(#linear-gradient-2);}.cls-11{fill:url(#radial-gradient-7);}.cls-12{fill:url(#radial-gradient-8);}.cls-13{fill:url(#radial-gradient-9);}.cls-14{fill:url(#radial-gradient-10);}.cls-15{fill:url(#radial-gradient-11);}</style><mask id="mask" x="0" y="-8774.08" width="1133.05" height="32766" maskUnits="userSpaceOnUse"/><radialGradient id="radial-gradient" cx="126.23" cy="300.71" fy="308.1220247458691" r="70.12" gradientUnits="userSpaceOnUse"><stop offset="0.01" stop-color="#fff"/><stop offset="1"/></radialGradient><radialGradient id="radial-gradient-2" cx="309.12" cy="285.06" fy="318.1989741913562" r="33.42" gradientTransform="translate(-11.35 578.55) rotate(-87.14) scale(1 1.07)" gradientUnits="userSpaceOnUse"><stop offset="0" stop-color="#fff"/><stop offset="0.29" stop-color="#acacac"/><stop offset="0.64" stop-color="#505050"/><stop offset="0.88" stop-color="#161616"/><stop offset="1"/></radialGradient><radialGradient id="radial-gradient-3" cx="314.88" cy="464.17" fx="303.6605165965474" fy="435.37634164213455" r="32.55" gradientUnits="userSpaceOnUse"><stop offset="0" stop-color="#fff"/><stop offset="0.02" stop-color="#f4f4f4"/><stop offset="0.14" stop-color="#bcbcbc"/><stop offset="0.25" stop-color="#8a8a8a"/><stop offset="0.37" stop-color="#5f5f5f"/><stop offset="0.49" stop-color="#3d3d3d"/><stop offset="0.61" stop-color="#222"/><stop offset="0.74" stop-color="#0f0f0f"/><stop offset="0.86" stop-color="#040404"/><stop offset="1"/></radialGradient><radialGradient id="radial-gradient-4" cx="319.59" cy="362.5" fx="358.648207925396" fy="377.1512681846084" r="41.72" gradientUnits="userSpaceOnUse"><stop offset="0" stop-color="#fff"/><stop offset="0.05" stop-color="#eaeaea"/><stop offset="0.2" stop-color="#adadad"/><stop offset="0.35" stop-color="#787878"/><stop offset="0.5" stop-color="#4d4d4d"/><stop offset="0.64" stop-color="#2b2b2b"/><stop offset="0.77" stop-color="#131313"/><stop offset="0.9" stop-color="#050505"/><stop offset="1"/></radialGradient><radialGradient id="radial-gradient-5" cx="401.15" cy="474.66" fx="453.0294149994215" r="51.89" gradientUnits="userSpaceOnUse"><stop offset="0.01" stop-color="#fff"/><stop offset="0.28" stop-color="#b0b0b0"/><stop offset="0.73" stop-color="#333"/><stop offset="0.93"/></radialGradient><linearGradient id="linear-gradient" x1="438.62" y1="281.53" x2="440.55" y2="365.69" gradientUnits="userSpaceOnUse"><stop offset="0" stop-color="#fff"/><stop offset="0.02" stop-color="#f7f7f7"/><stop offset="0.24" stop-color="#adadad"/><stop offset="0.44" stop-color="#707070"/><stop offset="0.62" stop-color="#3f3f3f"/><stop offset="0.78" stop-color="#1d1d1d"/><stop offset="0.91" stop-color="#080808"/><stop offset="1"/></linearGradient><radialGradient id="radial-gradient-6" cx="453.73" cy="682.05" fx="473.5578868405348" fy="615.1834285593202" r="69.74" xlink:href="#linear-gradient"/><linearGradient id="linear-gradient-2" x1="504.18" y1="102.18" x2="504.76" y2="268.71" gradientUnits="userSpaceOnUse"><stop offset="0" stop-color="#fff"/><stop offset="0.37" stop-color="#969696"/><stop offset="0.68" stop-color="#454545"/><stop offset="0.89" stop-color="#131313"/><stop offset="1"/></linearGradient><radialGradient id="radial-gradient-7" cx="529.09" cy="457.77" fx="480.25250696397313" r="48.88" gradientUnits="userSpaceOnUse"><stop offset="0" stop-color="#fff"/><stop offset="0.02" stop-color="#f7f7f7"/><stop offset="0.22" stop-color="#adadad"/><stop offset="0.4" stop-color="#707070"/><stop offset="0.57" stop-color="#3f3f3f"/><stop offset="0.71" stop-color="#1d1d1d"/><stop offset="0.83" stop-color="#080808"/><stop offset="0.91"/></radialGradient><radialGradient id="radial-gradient-8" cx="550.66" cy="283.61" fx="508.4406746057827" fy="191.48674719031553" r="103.98" gradientUnits="userSpaceOnUse"><stop offset="0" stop-color="#fff"/><stop offset="0.08" stop-color="#f6f6f6"/><stop offset="0.22" stop-color="#dedede"/><stop offset="0.39" stop-color="#b7b7b7"/><stop offset="0.6" stop-color="#818181"/><stop offset="0.82" stop-color="#3d3d3d"/><stop offset="1"/></radialGradient><radialGradient id="radial-gradient-9" cx="773.89" cy="348.71" fx="641.9618639458567" fy="373.0428982049758" r="134.16" gradientUnits="userSpaceOnUse"><stop offset="0" stop-color="#fff"/><stop offset="0.04" stop-color="#f0f0f0"/><stop offset="0.25" stop-color="#a9a9a9"/><stop offset="0.45" stop-color="#6c6c6c"/><stop offset="0.63" stop-color="#3e3e3e"/><stop offset="0.78" stop-color="#1c1c1c"/><stop offset="0.91" stop-color="#070707"/><stop offset="1"/></radialGradient><radialGradient id="radial-gradient-10" cx="978.54" cy="319.49" r="187" gradientUnits="userSpaceOnUse"><stop offset="0" stop-color="#fff"/><stop offset="0.26" stop-color="#b4b4b4"/><stop offset="0.4" stop-color="#929292"/><stop offset="0.51" stop-color="#6c6c6c"/><stop offset="0.67" stop-color="#3e3e3e"/><stop offset="0.81" stop-color="#1c1c1c"/><stop offset="0.92" stop-color="#070707"/><stop offset="1"/></radialGradient><radialGradient id="radial-gradient-11" cx="670.88" cy="557.99" fx="727.0553317888132" fy="624.2240181481341" r="86.85" xlink:href="#linear-gradient-2"/></defs><title>sylque</title><g id="Layer_1" data-name="Layer 1"><path class="cls-1" d="M40.67,318.41c30-15.14,61.67-32.06,96.52-29.26,13.9,1.12,27.47,6.8,40.27,11.91,14.28,5.7,28.4,11.92,43.09,16.5,13.1,4.09,26.91,7.15,40.69,5.33,8.47-1.11,16.67-4.31,24.61-7.34,8.13-3.1,16.32-6.65,23.57-11.51,5.33-3.57,10.82-8,13.24-14.11,2.63-6.66-.5-13-6.18-16.75-6.66-4.43-15.56-5.17-23.36-5a60.7,60.7,0,0,0-23.27,5,49.19,49.19,0,0,0-26.43,27.44c-5.65,15.2-.85,30.86,13.15,39.26,23.66,14.21,62.87,6.14,75.37,36.11,6,14.4,5.77,32.26,3,47.36C332.34,437.5,326.62,452.81,315,462c-11.25,9-27.37,6-39.51.29-12.9-6.11-23.35-17.66-25.92-32-2.41-13.41-1.12-31,6.75-42.57,5.8-8.54,15.53-14.58,25.05-18.11,16.86-6.24,34.54-9.45,50.78-17.5,15.53-7.69,29.75-19.5,38.43-34.68a50.86,50.86,0,0,0,6.91-19.71l-14.46,1.92c-.93,20-1.46,40.06-1.75,60.1-.23,15.53-.28,31.07.19,46.6.35,11.73.51,23.93,3.06,35.45,2.92,13.21,12.43,23.78,25.76,26.78,17.11,3.86,34.9-2.28,44.05-17.54,11.54-19.26,13-44.14,13.29-66.09.22-17.25,0-34.51-.22-51.76-.15-10.27.47-21-.76-31.22-.56-4.64-14.71-1.24-14.49,3.88q1.82,40.62,3.61,81.23,3.36,75.84,6.7,151.68,1.29,29.55,2.59,59.11c.45,10.48,1.25,21,1.08,31.53a257.41,257.41,0,0,1-3.91,40.14c-2.5,14.16-6,29.09-13.46,41.55-2.82,4.71-6.41,9.81-11.4,12.44-5.47,2.87-11.93.24-16.24-3.6-6.57-5.83-8.79-14.18-9.23-22.67a120.78,120.78,0,0,1,3.65-34.44c5.5-22.68,15.68-43.92,25.31-65.06,6.74-14.78,13-29.73,19-44.82,12.76-32,24.78-64.32,36.47-96.73,19.69-54.58,34.37-111.06,46.82-167.7,6.68-30.38,14.37-62.38,11.37-93.67-1-10-2.75-34-17.62-32.4-14.46,1.59-20.7,20.5-23.61,32.43-4.77,19.53-5.24,40.07-5.94,60.07-.45,12.89-.91,25.77-.87,38.67.07,27.17.75,54.35,1.6,81.5.69,21.88.65,44.16,3.24,65.93,1.61,13.46,8,27.89,23.17,29,11.71.89,20.2-6.79,27-15.35,8.24-10.35,14.83-22.09,20.9-33.8,5.46-10.55,10.81-21.38,14.64-32.64,1.5-4.41,1.83-8.6,2.54-13.2a109,109,0,0,1,7.78-26.51c6.81-15.65,17.47-30.65,31.43-40.7,9.37-6.75,20-10.5,30.75-4.77l11.59-6.8c-15.72-8.36-35.26-2.64-49.31,6.51-17.39,11.32-30.59,28.48-38.95,47.33-9.44,21.32-10.57,45.33-8.66,68.31,1.19,14.27,4.21,30.57,14.66,41.22,22.46,22.87,64.46,5.23,76.7-20.31,3.17-6.61,2.47-15.76,2.9-22.88.9-14.74,1.5-29.49,2-44.24q.95-25.1,1.59-50.19c.15-5.73.3-11.46.4-17.18,0-2.28.46-4.93.07-7.2-.3-1.74-3.11-2-4.38-2h0c-2.71-.09-9.43,1.38-10.1,4.89-.71,3.79-.12,8.35-.17,12.19q-.16,15.42-.3,30.85-.48,50.79-.9,101.59-.54,61.55-1.05,123.09-.45,53.46-.89,106.92-.14,17.54-.29,35.08l-.09,10.92c0,1.74-.42,4,0,5.72a4.46,4.46,0,0,1,0,.73c0,4.12,14.45,1.54,14.49-3.88q.18-21.2.35-42.37l.84-101.29q.51-61.31,1-122.61.45-53.35.94-106.72.15-17.55.33-35.11l.12-11.16c0-1.24,0-2.48,0-3.72,0-.4,0-.79,0-1.19,0,.5.23.53,0-.19a2,2,0,0,1,0-.77l-10.09,4.89h0l-4.38-2c.86,5-.15,10.86-.28,16.22q-.46,19-1.1,38c-.84,25.31-1.31,50.79-3.67,76a36.24,36.24,0,0,1-1,7.49c-1.66,5.2-6.37,10.12-10.3,13.68-5.89,5.34-12.74,9.24-20.87,9.1a28.27,28.27,0,0,1-11-2.54c-9.84-4.62-15-15-17.77-25-5.16-18.48-5.22-39.71-2.69-58.58a105.09,105.09,0,0,1,29.09-58.92c10.56-10.64,25.92-21.95,41.09-13.89,4,2.11,17.33-3.75,11.59-6.8C632.7,281.19,600,307.53,584.52,329.8A114.07,114.07,0,0,0,564.81,380c-1.2,9.53-4.92,18.08-8.89,26.8a290.77,290.77,0,0,1-19.33,35.93A123.73,123.73,0,0,1,526,457.33a41.76,41.76,0,0,1-4.31,4.31,15.55,15.55,0,0,1-1.62,1.2c-.43.38-1,.2.24-.07-1.44.31,1.72-.37,1.65-.34,1.81-.58.51.13-.34-.06a20.83,20.83,0,0,1-2.46-.56,12.14,12.14,0,0,1-4.34-2.71c-3.16-2.94-5-6.87-6.41-10.91a57.5,57.5,0,0,1-2.69-12.9c-.9-9.2-1.27-18.47-1.68-27.7-2.5-55.24-4.16-110.68-1.67-165.94.84-18.63,1.66-38.11,7.57-56a56.61,56.61,0,0,1,4-9.58,40.46,40.46,0,0,1,2.53-4.06c.47-.67,3-3,3-3.75,0-.1-8.1,1.91-8.11,1.62,0,.23.92.77,1.08,1,.54.94,1.25,1.73,1.76,2.71a45.11,45.11,0,0,1,3.54,10.5c7.42,31.41-.22,64.79-6.73,95.72-6.91,32.89-15.1,65.52-23.95,97.93-6.58,24.11-13.58,48.07-22,71.6q-16.87,47.26-35.08,94c-5.75,14.7-11.6,29.37-17.95,43.81-9.07,20.64-19.3,40.84-26.48,62.26a158.19,158.19,0,0,0-7.53,32.42c-1.09,9.67-1.87,20.75,1.12,30.14,5,15.66,20.29,23.14,36,19.73,30.1-6.56,38.49-43.52,42.46-69.45,4.92-32.08,2.17-64.2.76-96.44q-3.24-73.85-6.52-147.69L447,307.8c-.09-1.93-.17-3.85-.26-5.77l-14.49,3.88c.93,7.7.5,15.79.63,23.54q.39,21.85.44,43.71c0,21.17-.26,42-6.12,62.53-2.77,9.71-8.6,25.94-20.34,26.19-14.05.3-24.31-9.78-27.53-22.91-2.5-10.2-2.71-21.13-3.12-31.57-.57-14.65-.59-29.33-.45-44q.33-32.82,1.82-65.62c.26-5.62-14-2.67-14.46,1.92-1.72,16-12.71,29.8-25,39.43-14.44,11.34-32.37,15.7-49.63,20.83-23.51,7-47.7,19.43-52.75,45.69-2.78,14.44-2.59,30.73,5.3,43.53S262.21,470,276.48,473.5c14.94,3.72,31.64,2.66,44.9-5.67,12.14-7.63,20.11-20,24.66-33.4,5.22-15.35,6.25-32.27,4-48.26-1.84-13.1-7.41-24.32-18.32-32.09-12.08-8.61-27.41-9.75-41.49-12.92-15.62-3.52-33.48-10.32-34.64-28.83-.77-12.46,6.63-25.69,17.21-32.11,5.8-3.52,12.44-4.57,19.15-4.09,6.87.49,17.47,3.15,17.17,12.05-.21,6.13-6.23,10.55-10.93,13.42-7.65,4.67-16.18,7.89-24.62,10.81-6.21,2.14-11.76,3.44-18.36,3.07a91.94,91.94,0,0,1-19.36-3.62c-28.29-7.92-54.16-23.85-83.16-29.34-15.78-3-32.68-1.1-48.26,2.17-16.7,3.49-32.53,10-47.84,17.38-8.32,4-16.55,8.24-24.8,12.39-2.23,1.13-4.06,3.8-1.35,5.38,2.9,1.69,7.61-.1,10.24-1.43Z" transform="translate(-28.89 -161.08)"/><path class="cls-1" d="M614.8,613.83c8-4.59,14.65-11.53,21-18.1,9.1-9.43,17.66-19.38,25.79-29.65A270.06,270.06,0,0,0,683,535.73c5.58-9.51,8.19-19.66,11.21-30.2,8.35-29.17,17.14-59.34,18.42-89.83,1-23,1.41-46,1.92-69,.43-19.62,1.08-39.25,1.12-58.87,0-1.76-14.34.15-14.49,3.88-.74,19.37-1.1,38.76-1.23,58.14-.19,29.21-1.11,59.51,3.73,88.43,2.15,12.87,9,23.68,22,28.09,18,6.06,39.23-1.08,50.63-15.82,11.6-15,12.51-32.66,12.43-50.8-.05-10.45-.18-20.9-.3-31.35q-.43-39.87-.95-79.73L773,292.57c2,44.79,1.61,89.63,4.56,134.4.64,9.77,1.24,19.63,2.83,29.29.4,2.44.73,5.19,2,7.38,4.29,7.55,16,4.24,22.4,1.95,20-7.19,35.23-25.54,47.44-42.22,11.57-15.83,21.43-32.87,30.44-50.27,7.8-15.07,16.54-30.56,20.1-47.27,1.83-8.54,2.29-17.76-1.21-26-3.68-8.58-12.68-11.56-21.48-11.16-21.16,1-34.95,15.08-42.29,33.82a128.87,128.87,0,0,0-7.87,62.4,336.57,336.57,0,0,0,6.82,36.18c2.3,9.44,5.15,18.95,9.74,27.56,7.16,13.44,18.09,20.76,33.51,20.1,35.7-1.53,63.59-28.49,84.47-54.93,6.69-8.47,12.57-17.5,19.18-26a295.2,295.2,0,0,1,41-43.28c8.3-7.11,17.15-13.91,26.93-18.88,9.94-5.06,20.18-5.9,31-3.23,19.29,4.77,37.45,18.11,52.37,30.69,4.34,3.66,8.61,7.44,12.61,11.47,2.42,2.43,15.44-3,13.71-4.75a198.64,198.64,0,0,0-38-29.71c-15.26-9.23-31.23-16-49.43-14.45-22.15,1.86-41.73,13.46-58.59,27.25A300,300,0,0,0,974.62,384c-16.28,19.67-29.33,41.41-48.46,58.74-10,9.07-23.09,20-37.26,20.64-15.27.75-24.66-10.62-30.38-23.53-4-9-6.56-18.69-8.65-28.32A323.21,323.21,0,0,1,844,378.27a124.23,124.23,0,0,1,9.08-61.2c3.25-7.56,7.6-15.37,14.17-20.53,3.35-2.64,5.89-3,10.1-1.59a15.28,15.28,0,0,1,9.65,8.81c7.61,17.79-1.9,38.53-9.79,54.44-15,30.18-30.85,60.82-53.85,85.79a118,118,0,0,1-11.89,11.34,66.71,66.71,0,0,1-7.08,5.2c-.85.53-1.72,1.05-2.61,1.52-2,1.07-1.89.32-.8.73-3.66-1.35-4.77-3.68-5.55-7.22-1.8-8.1-2.26-16.59-2.88-24.83-3.51-46.06-4.2-92.37-5-138.54,0-1.16,0-2.33-.07-3.5-.08-1.94-14.53.27-14.49,3.88q.4,32,.78,63.93.21,19.31.41,38.61c.1,11.1.85,22.44-1.16,33.4s-7.26,21.95-15.38,29.86c-5.1,5-10.1,5.47-16.9,3.66-13-3.45-20.22-14.13-22.44-26.65-4.8-27.11-4-55.66-3.92-83.09.06-21.48.44-43,1.26-64.44l-14.49,3.88c-.07,39.76-1.35,79.6-2.72,119.33-1,28.59-7.15,56-14.67,83.57-3.27,11.95-5.74,25.11-11,36.37-4.54,9.68-10.91,18.59-17.24,27.16a408.19,408.19,0,0,1-28.32,34.35c-6.87,7.47-14.51,16.34-23.31,21.4-2.39,1.37-1.84,2.54.71,2.67a20.69,20.69,0,0,0,10.25-2.75Z" transform="translate(-28.89 -161.08)"/><g class="cls-2"><path class="cls-1" d="M39.41,320.62C70,305.18,102,288,137.56,290.41c13.46.93,26.52,6.15,38.95,11,14.33,5.65,28.45,11.92,43.11,16.71,13,4.25,27.11,7.74,40.92,6.25,8.35-.91,16.23-3.93,24-6.86a122.49,122.49,0,0,0,24.61-11.89c11.14-7.31,21.48-22.17,7.7-32.75-12.35-9.48-33.47-7.18-46.85-1.37-25.4,11-42.73,50-14.49,68.33,14.11,9.17,31.26,10.46,47.2,14.29,12.25,2.95,23.66,9.31,29,21.33,6.22,14.1,5.87,31.9,3.24,46.78-2.47,14-8.2,29.43-19.88,38.31-11.29,8.59-26.95,6.52-39.27,1.17-13-5.67-23.65-17.2-26.2-31.4-2.31-12.88-1.06-30,6.52-41.19,5.71-8.39,15.69-14.42,25.05-17.86,17-6.25,34.95-9.43,51.27-17.68,15.69-7.93,29.59-20.05,38.37-35.4a52.13,52.13,0,0,0,6.81-20.06L363,299.33c-.93,20-1.48,40.11-1.76,60.18-.21,15.5-.25,31,.24,46.52.38,11.86.55,24.2,3.12,35.83,2.94,13.32,12.59,24.56,26,27.81,17.88,4.31,34.51-2.06,44-17.84,7.07-11.79,9.47-26,11.47-39.38a196.11,196.11,0,0,0,1.73-27c.2-17.29,0-34.57-.25-51.85-.16-10.4.42-21.24-.83-31.59-.73-6.11-14.83-3.17-14.58,2.51q1.81,40.62,3.61,81.24,3.36,75.84,6.7,151.68,1.31,29.7,2.6,59.4c.45,10.44,1.23,20.95,1.07,31.4A258.71,258.71,0,0,1,442.37,668c-2.46,14.41-6,29.23-13.49,41.94-5.9,10-16.56,18.48-27.57,9.75-6.64-5.26-9-13.79-9.32-21.92a122.17,122.17,0,0,1,3.3-32.83c5.27-22.84,15.63-44.2,25.3-65.41,6.83-15,13.2-30.14,19.29-45.44,12.72-32,24.73-64.25,36.4-96.62C496,402.85,510.7,346.29,523.19,289.59c6.73-30.54,14.31-62.42,11.48-93.87-.9-10.1-2.93-35.58-18.06-34.61-7.23.46-11.74,6.64-15.23,12.31-4,6.44-6.33,13.82-8.11,21.12-4.7,19.25-5.21,39.48-5.91,59.18-.47,13-.93,26-.89,39,.08,27.41.78,54.83,1.64,82.24.69,21.89.75,44.15,3.27,65.94,1.56,13.5,8,28.22,22.91,30.4,11.85,1.73,20.44-6.56,27.19-15.2,8.28-10.59,15-22.46,21.21-34.38,5.34-10.3,10.52-20.92,14.24-31.93,1.63-4.84,2.07-9.21,2.86-14.25a103.36,103.36,0,0,1,7.94-26.47c6.91-15.36,17.28-29.84,31.14-39.65,8.87-6.28,20.58-11.05,31-5.51L661,295.64c-16.32-8.67-34.72-3.6-49.45,6-17.35,11.3-30.78,29.28-38.87,48.16-9.25,21.64-10.33,45.53-8.4,68.73,1.2,14.36,4.3,30.86,14.76,41.6,22.59,23.18,64.38,7.32,76.59-19.56,3.15-6.95,2.57-16.2,3-23.63.89-14.73,1.49-29.48,2-44.23q.94-25.09,1.6-50.2c.15-5.72.29-11.45.39-17.18,0-2.44.38-5.15,0-7.58-.34-2-3-3.19-4.72-3.24h0c-3.81-.12-9,1.35-9.86,5.76-.68,3.61-.12,7.9-.16,11.55q-.16,15.57-.3,31.12-.48,51-.91,101.92-.53,61.54-1,123.11-.45,53-.88,105.95c-.15,17.23-.7,34.51-.43,51.73,0,.24,0,.48,0,.73-.06,7.46,14.62,5.24,14.67-1.16q.16-21.18.35-42.37l.84-101.75q.53-61.56,1-123.11.47-53,.94-106.09.16-17.61.33-35.21c.06-5.44.82-11.39.2-16.81a3.32,3.32,0,0,1,0-.77l-9.86,5.76h0l-4.71-3.24c-.41-2.37-.05-1.06-.08-.2,0,1.23,0,2.46,0,3.69-.06,4.12-.16,8.23-.26,12.35q-.46,19-1.1,38c-.84,25.31-1.31,50.79-3.67,76-.14,1.51-.29,3-.5,4.52-.12.89-1,3.86-.17,1.76-2.11,5.38-6.24,10.12-10.5,13.91a40.61,40.61,0,0,1-9.64,6.47,28.68,28.68,0,0,1-5.77,2,23.56,23.56,0,0,1-3.56.56c.06,0-4,.11-2.3.14-4.91-.09-7.43-.49-11.71-2.44-8.48-3.86-14-14.18-16.74-23.84-5.13-18.37-5.1-39.43-2.58-58.2,2.92-21.82,13.75-42.73,29.26-58.28,9.87-9.9,26.59-21.84,41-14.17a9.86,9.86,0,0,0,10.38-.91c2.13-1.62,4.1-5.62.81-7.36-29.2-15.54-60.83,10.1-76.62,33.28C574.12,344,567,361.42,564.71,379.6c-1.18,9.35-4.71,17.27-8.89,26.34A297.8,297.8,0,0,1,536.39,442a109.41,109.41,0,0,1-10.29,13.94,30.29,30.29,0,0,1-4,3.94c-.34.27-2.32,1.72-1.64,1.23.88-.62-.48.22-.6.27-1.14.52.7-1,.1-.08.22-.32,1.8.07.72-.18-.7-.16-1.39-.14-2.08-.33a10.64,10.64,0,0,1-4.14-2.27c-3-2.65-4.87-6.58-6.13-10.32a57.5,57.5,0,0,1-2.69-12.9c-.89-9.06-1.23-18.2-1.64-27.29-2.44-54.68-4-109.53-1.68-164.23.8-18.83,1.36-38.87,7.42-56.91a60.69,60.69,0,0,1,4.07-9.53,37.28,37.28,0,0,1,2.23-3.69c.49-.7,1-1.37,1.58-2,.32-.4.65-.78,1-1.15,1-.92.92-1-.08-.19-.08-.06-6.24,2.66-6.47.7,0-.15.57.83.25.11.47,1,1.54,2,2.09,3a42.16,42.16,0,0,1,3.18,9.42c7.72,31.32-.18,65.09-6.68,96C504,312.38,495.85,345,487,377.42c-6.5,23.81-13.43,47.46-21.74,70.71q-16.81,47-34.93,93.57c-5.75,14.69-11.59,29.36-17.94,43.81-9.19,20.91-19.58,41.37-26.77,63.1a164.45,164.45,0,0,0-7.56,32.08c-1.18,9.86-1.93,21.09.93,30.74,4.77,16,20.21,25.15,36.54,21.82,29.7-6.06,38.18-44.82,42.09-69.92,5-32,2.23-63.93.82-96.05q-3.22-73.85-6.51-147.69L447,309.16c-.09-1.92-.18-3.85-.26-5.77l-14.58,2.52c.13,1,.05-1.3,0-.46a15.36,15.36,0,0,0,.07,1.66c.06,1.71.11,3.42.16,5.13q.22,8.38.35,16.77.39,21.92.42,43.83c0,21.1-.21,42-6.13,62.47-3.05,10.55-9.11,25-21.37,25.28-13.53.3-23.28-8.9-26.4-21.62-2.46-10.07-2.68-20.85-3.06-31.17-.55-14.69-.56-29.4-.41-44.1q.35-32.77,1.82-65.53c.35-7.45-14-5.2-14.66,1.16-1.69,15.68-13,29.4-25.16,38.61-14.43,10.91-32,15.33-49,20.37-24.31,7.19-48,20-53.18,47-2.79,14.49-2.43,30.8,5.18,43.77,7.5,12.78,21.11,21.61,35.26,25.29,15.48,4,31.88,3.49,45.65-5.26,12.14-7.71,20.08-20.81,24.45-34.23a108.5,108.5,0,0,0,4-48c-1.78-13.41-7.29-24.87-18.19-33.14-11.95-9.07-27.27-10.42-41.48-13.5-15-3.25-33.54-9.19-34.83-27.21-.87-12.23,6.57-25.08,17-31.25a34.78,34.78,0,0,1,18.89-4.44c6,.21,16.65,1.42,17.5,9.24.67,6.14-6.08,10.65-10.55,13.4-7.48,4.59-16,7.79-24.24,10.64-6.08,2.09-11.72,3.79-18.2,3.66A82.21,82.21,0,0,1,236.19,311c-28.42-7.78-54.3-23.32-83.21-29.42-32.23-6.81-66.56,4.59-95.36,18.4-8.25,4-16.4,8.15-24.58,12.27-2.61,1.32-5.5,4.35-3.45,7.34s7.17,2.35,9.82,1Z" transform="translate(-28.89 -161.08)"/><path class="cls-1" d="M614,616.77c8-4.62,14.85-11.89,21.23-18.51a393.56,393.56,0,0,0,25.94-30c7.69-9.77,15.2-19.85,21.5-30.59,5.57-9.47,8.24-19.59,11.26-30.1,8.46-29.43,17.4-59.85,18.69-90.62,1-23,1.41-46,1.92-69,.44-19.61,1.09-39.25,1.12-58.87,0-7-14.38-4.57-14.61,1.36-.74,19.36-1.1,38.76-1.23,58.14-.19,29.43-1,59.88,3.68,89,2.13,13.21,8.59,24.07,21.47,29.65,18.65,8.09,39.29,1,51.09-14.79C787.59,437,788.86,419.58,788.77,401c0-10.45-.18-20.91-.3-31.36q-.44-39.85-1-79.72l-14.61,1.35c2,44.91,1.65,89.88,4.56,134.78.65,10,1.25,20.05,2.85,29.93a29.36,29.36,0,0,0,1.77,7.18c3.66,8.36,14.06,8.07,21.43,5.58,20.7-7,36.46-27,48.83-44,11.37-15.68,21.1-32.48,30-49.66,7.92-15.3,16.75-31,20.42-48,1.85-8.5,2.32-17.94-.85-26.19-3.68-9.57-12.51-14.22-22.53-14.42-20.75-.4-34.45,16.37-41.4,34.07a131.71,131.71,0,0,0-8.13,64.37c2.75,21.3,6.59,44.58,16.59,63.82,7.07,13.6,18.27,22.21,33.95,22.23,35.24.06,63.69-29.43,83.83-55.2,4.09-5.24,8-10.61,11.86-16q1.8-2.52,3.58-5.06l.83-1.15c-.08.11-.77,1-.19.26,1.09-1.46,2.2-2.89,3.32-4.31a290.44,290.44,0,0,1,41.57-43.35c16-13.26,35.25-26.57,57.07-22.22,19.41,3.87,37.83,17.49,52.68,29.86,4.39,3.66,8.68,7.47,12.71,11.53,4.24,4.26,18-1.45,13.33-6.14a201.44,201.44,0,0,0-37.4-29.65c-15.6-9.54-32.07-17.16-50.79-16.17-21.87,1.17-41.28,13.82-57.6,27.49a308.35,308.35,0,0,0-40.88,41.74c-6.4,7.86-12,16.29-18.07,24.4-9.14,12.19-19.08,23.9-30.47,34.06-10.68,9.52-24,18.84-38.66,20.07-14.17,1.19-22.87-8.56-28.35-20.67-4-8.94-6.61-18.51-8.72-28.07-2.38-10.78-4.56-21.74-5.88-32.71A121.4,121.4,0,0,1,852.83,319c3.07-7.14,7.11-14.72,13.45-19.5s16.22-4.37,20.27,3.21c8.89,16.65-1.79,38.83-9.22,53.78-15.12,30.45-31.12,61.59-54.8,86.41a104.27,104.27,0,0,1-10.6,9.88c-2.86,2.26-9.08,7.95-13.12,7.69-2.44-.16-2.83-2.53-3.33-4.75-1.78-7.89-2.24-16.17-2.86-24.21-3.56-45.9-4.2-92.07-5-138.08,0-1.17,0-2.34-.07-3.5-.31-7-14.68-4.55-14.61,1.35q.4,32,.77,63.92.23,19.31.42,38.61c.1,11.1.83,22.44-1.16,33.4-2.85,15.65-13.44,36.43-32.25,33.24-12.8-2.17-20.11-12.55-22.3-24.47-4.93-26.86-4-55.26-4-82.45.07-21.48.44-43,1.26-64.45l-14.61,1.36c-.07,39.75-1.35,79.59-2.72,119.32-1,28.27-7,55.41-14.39,82.66q-3.08,11.28-6.36,22.5c-1.45,5-2.53,9.61-4.63,14.08-4.5,9.58-10.78,18.44-17.06,26.91a409.4,409.4,0,0,1-28.39,34.24c-6.91,7.45-14.1,15.72-22.9,20.78-2.62,1.51-3.59,5-1,6.86,3,2.16,7.56.56,10.35-1.05Z" transform="translate(-28.89 -161.08)"/></g></g><g id="Layer_2" data-name="Layer 2"><path class="cls-3" d="M31.21,314.78c-1.65.88-2.68,2.88-1.86,4.08s2.79,1.82,4.85,1.63a20.44,20.44,0,0,0,6.46-2.06c.77-.41,6.91-3.52,11.33-5.72,2.1-1,4.28-2.11,4.47-2.2,1.83-.92,17.15-8.4,18.78-8.76s18-8.08,36.29-11.3c15.67-2.11,29.69-3.48,52.82,5.53s48.9,19.92,54.39,21c12.13,2.45.34-11.93-33.15-24.36-31.52-12.17-46.56-15.06-81.39-7.92-11.26,2.13-23.69,6.75-33.86,11C55.77,302.08,44.08,307.86,31.21,314.78Z" transform="translate(-28.89 -161.08)"/><path class="cls-4" d="M323.44,283.17c.36,2.63,1.52,10.65-13.93,20.81-9.38,6.17-19.72,10-22.49,11.13s-4.75-5.88-4.75-5.88a114.29,114.29,0,0,0,14.2-6.63,41.29,41.29,0,0,0,8.31-5.93c4.05-3.78,7.88-12.48-1.77-17.78a37.73,37.73,0,0,0-20.2-2.36c-5.09.61-11.8-3.9-8.59-5a63.61,63.61,0,0,1,29.15-2.79C313,269.59,322.27,275,323.44,283.17Z" transform="translate(-28.89 -161.08)"/><path class="cls-5" d="M335.68,454.47a61.86,61.86,0,0,1-5.77,6.61,55.75,55.75,0,0,1-11.36,8.39,52.11,52.11,0,0,1-20.07,5.82,69.53,69.53,0,0,1-14.43-.34c-1.76-5.53,1.22-8.95,2.58-8.63a41.66,41.66,0,0,0,14.75,1.18,27,27,0,0,0,11.78-4.12c5.31-3.49,9.85-9.3,12.39-13.6a69.82,69.82,0,0,0,4.9-10.13c.29-1.47,11.36,4.92,10.41,6.72-.32.59-1.14,2.05-2.11,3.64C337.43,452.1,336.46,453.41,335.68,454.47Z" transform="translate(-28.89 -161.08)"/><path class="cls-6" d="M292.9,358.67c5.53-1.68,20.57-6,23.77-7.65a135.65,135.65,0,0,0,15.89-8,100.39,100.39,0,0,0,11.34-8.91c1.85-1.77,16-2.23,15-1.21a85,85,0,0,1-13.09,11.15A103.12,103.12,0,0,1,323,356.2c-4.18,2-21.94,7.49-26.49,8.54-3.49,1.14-15.59,4.45-23.33,8.63-2.82,1.78-10.68-2.57-9.55-3.3,3.66-2.35,10.63-5.13,12.66-5.94a133.46,133.46,0,0,1,16.58-5.46c5.61-1.71,20.57-6,23.77-7.65" transform="translate(-28.89 -161.08)"/><path class="cls-7" d="M423.14,447c-1.39,2.95-4.38,9.75-10.49,13.29-4.48,2.6-12.49,1.78-18.43-1.26a26.68,26.68,0,0,1-7.75-6.06,31.41,31.41,0,0,1-5.2-8.15,39.71,39.71,0,0,1-2.62-8.71c-.5-2.59-15.72-3.91-15.15.08.87,6.05,2.28,11.63,5.28,16.5a34,34,0,0,0,11.1,11.62,31.89,31.89,0,0,0,13.51,4.91,42.6,42.6,0,0,0,14.38-.09,39.1,39.1,0,0,0,12-4.12,36.76,36.76,0,0,0,12.63-11c3.1-4.31,3.25-8.85,3.21-12.7s-1.56-7.85-2.64-10.68-2.78-8.24-3.28-5.67C428.75,430,425.92,441.12,423.14,447Z" transform="translate(-28.89 -161.08)"/><path class="cls-8" d="M438.64,300.45c2.7-.82,5.62-.84,7,0s1,1,1.57,7.75c.12,1.88.37,7.52.25,11.59.38,8.12.67,16,.79,17.81.16,2.44,1,21.73,1,23.18.11,2,.85,20.68,1.24,27.35.33,5.7,1.15,25.24,1.14,27.41s-20.93,4.9-20-3.13c1-8.42,1.55-21.42,1.55-30.05s0-14.14,0-21.65-.17-20.46-.3-26.52c-.09-4-.16-9.2-.09-14.32-.25-5-.42-10.22-.63-14C432.23,302.25,437.93,300.66,438.64,300.45Z" transform="translate(-28.89 -161.08)"/><path class="cls-9" d="M460.4,623.13c0,20.79-1.65,32-2.8,39.23-.79,6.72-4,23.58-8.07,34-1.65,4.22-5.51,15.37-14.75,24.68a38.58,38.58,0,0,1-25.91,11.59,29.68,29.68,0,0,1-20.26-6.5c-3.63-2.94-2.83-13.41-2.42-16.75s5.44-13,6-9.08c.63,4.56,1.68,9.7,4.32,14,1.65,2.08,4,7.08,11.8,9.81,6.91,2.42,13.79-1.79,19-10.5,2.89-4.83,5-7.46,8.94-18.9a169.5,169.5,0,0,0,6.71-29.21,267.18,267.18,0,0,0,3.27-37.36c.08-6.13,14.13-20.86,14.13-15.87S460.39,616.85,460.4,623.13Z" transform="translate(-28.89 -161.08)"/><path class="cls-10" d="M489.34,418c3.94-11.87,9-30,13.25-45,2.9-10.26,5-18.87,6.22-23.5,4.79-18.13,14.84-61.95,16.66-71.07,2.09-7.89,7.39-35,8.27-45.11,1.71-12.69,2-29.08.7-40.1-1-8.18-1.75-20.36-7.94-27.11-3.89-5-12.86-5.56-20.57,2-11.65,11.07-15.88,39.29-17.19,58.45s-2.31,59.13-2.18,64.74c.11,4.72-.13,14.5.13,20.53s14.52,16.51,14.54,6.8c0-11.76,0-35.39.06-41.17.13-9.3.61-22.1.9-32.06.26-9.09,1.22-23.14,1.89-30.66,1.31-14.69,6.16-33.55,10.67-40,2.9,6.55,6.12,21.49,6.08,36.58-.26,12-1.67,28.13-3.72,38.36-1.86,10.38-6.87,33.68-8.19,40.18s-5.49,23.7-7.64,33.2c-2.47,10.94-12.23,47.48-15.12,58.22s-8.34,28.89-11,37.81,4.21,28.87,6.64,21.82C485,431.78,487.55,423.4,489.34,418Z" transform="translate(-28.89 -161.08)"/><path class="cls-11" d="M487.05,334.42c.09,5.2.49,21.65,1.07,39.38.78,24.08,1.45,50.56,2.05,54.78,1.16,8.27,1.16,16.23,3.5,22.95,1.88,6,5.95,12.65,11.75,15.84a21.24,21.24,0,0,0,14.69,2.57c5.46-.88,11.88-4.08,18.45-11.56a148.28,148.28,0,0,0,14.32-20c2.24-3.74.18-25.48-2.17-20.7-3.94,8-9.35,17.14-10.54,19.26-2.24,4-7.91,12.26-9.79,14.89a64.42,64.42,0,0,1-9.46,10.4c-3.6-.3-10.88-5.24-13.64-17.74-2.35-7.63-3.35-38.54-3.49-42.21-.28-7-1.18-26.49-1.2-29.29a143.13,143.13,0,0,0-1.31-15.84C499.87,344.7,486.94,327.58,487.05,334.42Z" transform="translate(-28.89 -161.08)"/><path class="cls-12" d="M660.56,296a38.21,38.21,0,0,0-21.94-3.89,56,56,0,0,0-21.75,7.52,101.47,101.47,0,0,0-20.55,16,109,109,0,0,0-18.11,24.14,110.22,110.22,0,0,0-10.72,26.36,137.43,137.43,0,0,0-3.29,18c-.24,1.9-.24,28.8,0,33.53.34,5.78,1.72,16.32,4.13,23.48A50.24,50.24,0,0,0,576,456.31a35.16,35.16,0,0,0,14.22,11.09,41.6,41.6,0,0,0,17.28,2.86A51,51,0,0,0,625.89,466a60,60,0,0,0,20.88-14.06c6.81-7-3.85-16.26-4.15-14.84a16.81,16.81,0,0,1-1,3.53,26.2,26.2,0,0,1-3.78,6.09c-1.84,2.43-7.94,8.39-11.54,10.57a27.77,27.77,0,0,1-14,4.78,27.15,27.15,0,0,1-14.37-3.57,29.24,29.24,0,0,1-9.42-9.26,51.42,51.42,0,0,1-5.65-12.3,115.32,115.32,0,0,1-4.32-22.22,181,181,0,0,1-.2-28c.45-5,1.47-15.59,4.4-25.06a125.49,125.49,0,0,1,9.07-21.9A115.93,115.93,0,0,1,602.7,323.5a113.14,113.14,0,0,1,10.82-11.12c2.6-2.13,8.26-7,14.05-9.36,2.67-1.11,10.9-4.75,20.4-.65C658.6,306.94,661.72,296.66,660.56,296Z" transform="translate(-28.89 -161.08)"/><path class="cls-13" d="M749.33,467.39A48.06,48.06,0,0,0,761.21,463a46.59,46.59,0,0,0,14.07-11.21,36.73,36.73,0,0,0,3.78-5.22c.29,3.29.93,7.37,1.41,10.39.53,3.36,1,5.52,2.36,7.43,1,1.33,2.6,3.19,7,3.77,4.6.61,10.93-1.2,12.41-1.77,12.8-3.89,24.34-13,31.39-20.6,6.89-7.42,0-13.67-3-10.19s-4.85,5.81-8.6,9.77a134.41,134.41,0,0,1-10.95,10.25c-3,2.53-9,6.58-10.56,6.93a7.29,7.29,0,0,1-4.54-5c-1.48-4.62-2.83-19.64-3.12-24.29s-1.53-19.95-2.72-42.8c-.34-6.39-1.15-29.89-1.28-36.17s-1.29-59.36-1.33-62.25c0-1.52,0-2.49-.06-3.12,0-.4,0-.44-.25-.62-1.32-1-11,.25-13.67,3-.52.62-.61.81-.57,2s0,2.15,0,3.8.34,23.25.34,27.77.27,23.08.35,29.61.26,27.37.35,33.49.41,22.46.25,26.88c-.25,6.12-.28,10.49-2,16.93a57.41,57.41,0,0,1-10.53,21.92c-3.36,4.18-6.53,7.64-11.11,8.84-3.93,1.17-9.07-.18-11.08-.8-3.82-1.18-5.16,6.57-2.89,6.77A45.55,45.55,0,0,0,749.33,467.39Z" transform="translate(-28.89 -161.08)"/><path class="cls-14" d="M897.25,466c10.13-2.79,21.53-8.18,34.43-18.36,22.75-18.59,35.42-37.08,43.58-48.53,6.46-9.45,23-29.92,36.48-42.82,6.36-6.43,24.17-22.33,37.67-29.48a45.19,45.19,0,0,1,29.63-5.08c12.26,2.17,28.11,10.54,37.12,17,8.56,6.43,14,10.63,17,12.92,3.25,2.47,25.56,5.93,21.82,2.3a176.72,176.72,0,0,0-18.11-14.76A186.42,186.42,0,0,0,1117,326.54c-4.27-2.45-13.83-7-20.33-8.55a64,64,0,0,0-29.37-1.47c-13.59,2.11-25.64,8.49-31.82,12.13-8.65,4.69-22,15.47-26.39,19.5-4.75,3.83-17.28,16.19-21.5,21-11,11.68-22.54,26.51-33.55,41.68-3.72,5-16.08,21.27-27.31,31.37-3.79,3.24-19,18.45-34.65,20.84-8.5,1.16-13.79-1.07-16.86-2.73-2.25-1.23-6.15-2.29-7.89-1.71s-5.33,6.53-3.38,7.42c4.8,2.2,10.17,3,16.56,2.73A77.54,77.54,0,0,0,897.25,466Z" transform="translate(-28.89 -161.08)"/><path class="cls-15" d="M609.32,616c7.07-1.7,15.23-8.76,21.06-14.76,6.12-6.31,10.13-10.26,15.26-16.17,1.32-1.52,13.12-15.35,14.69-17.47,2.11-2.31,12.7-16.52,14.11-18.68,2.09-2.78,10-15.15,10.95-17.79a86.09,86.09,0,0,0,5.52-14.4c2.14-7.22,5.26-18,6.13-21.3s6.41-23.21,7.29-26.94c.57-2.38,2.78-12.11,3.72-16.9s-14.44,1-14.87,3.47c-1,5.67-4.44,20.31-4.91,22.23-.55,2.26-4.94,19-5.53,21.11-.84,3-3.51,14.1-4.7,17.95a77.87,77.87,0,0,1-5.43,14.85,170.42,170.42,0,0,1-12.23,20.17c-.9,1.18-12.7,17.22-14.68,19.53s-8.78,10.67-11,13.11c-3.65,4.07-8.25,9.25-9.18,10.21s-4.83,5.37-8.1,8.64a95.91,95.91,0,0,1-8.69,7.74c-3.42,2.59-4.89,3.1-5.89,4-.6.54-.86,1.15-.08,1.6C603.87,616.75,606.32,616.75,609.32,616Z" transform="translate(-28.89 -161.08)"/></g></svg>